<?xml version="1.0" encoding="utf-8"?>
<!-- Generator: Adobe Illustrator 27.9.0, SVG Export Plug-In . SVG Version: 6.00 Build 0)  -->
<svg version="1.1" id="Layer_1" xmlns="http://www.w3.org/2000/svg" xmlns:xlink="http://www.w3.org/1999/xlink" x="0px" y="0px"
	 viewBox="0 0 595.276 559.34" enable-background="new 0 0 595.276 559.34" xml:space="preserve">
<g>
	<path fill="#4A386B" d="M218.951,136.04c1.456,0.491,1.936,1.2,1.814,2.32c-0.043,0.395-0.006,0.798-0.006,1.198
		c-0.004,65.676-0.008,131.353-0.012,197.029c0,0.794,0,1.589,0,2.537c-0.576-0.083-1.046-0.073-1.459-0.221
		c-6.536-2.335-13.032-4.788-19.612-6.993c-2.667-0.894-3.58-2.732-3.783-5.189c-0.131-1.589-0.085-3.193-0.086-4.791
		c-0.027-46.82-0.056-93.64-0.066-140.46c-0.002-7.43,0.081-14.859,0.135-22.289c0.023-3.205,1.113-5.926,3.696-7.95
		C206.044,146.161,212.515,141.086,218.951,136.04z"/>
	<path fill="#573D73" d="M375.813,135.514c0.57,0.355,0.906,0.53,1.203,0.755c7.006,5.308,13.989,10.646,21.024,15.915
		c1.479,1.108,2.186,2.483,2.242,4.264c0.038,1.198,0.076,2.396,0.077,3.594c0.019,50.265,0.031,100.529,0.056,150.794
		c0.003,5.034,0.086,10.067,0.123,15.101c0.005,0.718-0.038,1.436-0.058,2.154c-0.079,2.747-1.501,4.391-4.083,5.251
		c-6.435,2.142-12.844,4.36-19.267,6.539c-0.37,0.126-0.766,0.176-1.316,0.298C375.813,272.017,375.813,203.967,375.813,135.514z"/>
	<path fill="#5D4177" d="M420.559,381.272c0-69.302,0-138.604,0-208.204c0.433,0.406,0.678,0.579,0.852,0.806
		c9.603,12.551,17.129,26.167,21.288,41.508c2.377,8.768,3.398,17.692,3.239,26.776c-0.255,14.537-0.539,29.074-0.593,43.612
		c-0.037,9.903,0.191,19.81,0.492,29.71c0.43,14.179-2.581,27.591-8.613,40.366c-4.001,8.473-8.745,16.509-14.471,23.944
		c-0.502,0.652-1.14,1.2-1.714,1.796C420.878,381.481,420.718,381.376,420.559,381.272z"/>
	<path fill="#48376A" d="M175.199,173.379c0,69.745,0,138.984,0,208.433c-0.31-0.187-0.59-0.27-0.74-0.458
		c-10.731-13.375-18.839-28.104-22.746-44.907c-0.842-3.624-1.304-7.42-1.316-11.139c-0.095-28.84-0.07-57.68-0.001-86.52
		c0.017-6.94,0.132-13.886,1.606-20.735c1.83-8.505,5.037-16.466,9.229-24.05c3.754-6.79,7.929-13.308,12.829-19.341
		C174.31,174.355,174.586,174.068,175.199,173.379z"/>
	<path fill="#543C71" d="M286.04,247.925c8.324,0,16.366,0,24.651,0c0.105,1.393,0.292,2.724,0.294,4.055
		c0.031,20.052,0.037,40.104,0.05,60.156c0.01,14.939,0.023,29.878,0.032,44.817c0,0.799,0.019,1.601-0.048,2.395
		c-0.176,2.074-1.151,3.679-3.093,4.493c-6.169,2.586-12.388,2.852-18.61,0.165c-2.109-0.911-3.233-2.541-3.259-4.862
		c-0.022-1.996-0.008-3.993-0.008-5.99c-0.003-34.033-0.005-68.065-0.008-102.098C286.04,250.103,286.04,249.15,286.04,247.925z"/>
	<path fill="#503B6F" d="M265.318,247.968c0,35.706,0,71.249,0,106.976c-0.533-0.084-1.063-0.086-1.535-0.253
		c-6.625-2.333-13.247-4.672-19.858-7.045c-2.498-0.897-3.009-1.592-3.012-4.227c-0.02-19.899-0.016-39.799-0.018-59.698
		c-0.001-10.869-0.006-21.738,0.013-32.608c0.002-1.008,0.16-2.015,0.257-3.146C249.29,247.968,257.174,247.968,265.318,247.968z"/>
	<path fill="#583F74" d="M331.734,247.908c7.853,0,15.504,0,23.451,0c0.115,1.995,0.325,3.951,0.327,5.908
		c0.021,23.331,0.008,46.663,0.013,69.994c0.001,6.072,0.041,12.144,0.047,18.216c0.001,0.876-0.024,1.76-0.142,2.626
		c-0.248,1.813-1.234,3.134-2.969,3.737c-6.707,2.329-13.429,4.613-20.15,6.903c-0.132,0.045-0.309-0.041-0.577-0.085
		C331.734,319.536,331.734,283.851,331.734,247.908z"/>
	<path fill="#4B396C" d="M265.188,220.974c-8.095,0-15.992,0-24.137,0c-0.08-1.61-0.222-3.172-0.226-4.735
		c-0.049-18.533-0.068-37.065-0.116-55.598c-0.024-9.345-0.09-18.691-0.136-28.036c-0.003-0.559-0.013-1.119,0.003-1.678
		c0.098-3.448,1.187-4.914,4.493-5.889c5.509-1.625,11.03-3.209,16.545-4.812c1.126-0.327,2.25-0.664,3.573-1.055
		C265.188,153.226,265.188,186.975,265.188,220.974z"/>
	<path fill="#503A6F" d="M355.099,221.002c-8.026,0-15.744,0-23.547,0c0-33.79,0-67.447,0-101.289c0.553,0.089,0.939,0.11,1.3,0.216
		c6.35,1.87,12.704,3.728,19.042,5.639c2.71,0.817,3.404,1.833,3.42,4.708c0.047,8.705,0.136,17.41,0.117,26.115
		c-0.045,20.685-0.142,41.37-0.223,62.055C355.204,219.226,355.143,220.006,355.099,221.002z"/>
	<path fill="#563E73" d="M241.178,374.928c1.035,0.351,1.932,0.64,2.819,0.958c6.153,2.207,12.31,4.403,18.451,6.641
		c2.625,0.956,3.077,1.62,3.077,4.418c-0.003,16.124-0.012,32.247-0.063,48.371c-0.003,0.966-0.38,1.931-0.615,3.052
		c-0.926-0.253-1.533-0.383-2.116-0.584c-6.253-2.164-12.486-4.387-18.761-6.483c-2.082-0.696-2.94-2.066-2.942-4.105
		c-0.019-17.163-0.023-34.325-0.027-51.488C241.001,375.554,241.069,375.4,241.178,374.928z"/>
	<path fill="#5E4277" d="M355.602,375.724c0,1.367,0.004,2.718-0.001,4.069c-0.049,15.568-0.13,31.135-0.119,46.703
		c0.002,2.578-1.283,4.143-3.452,4.894c-6.553,2.269-13.164,4.369-19.756,6.527c-0.129,0.042-0.292-0.02-0.699-0.057
		c-0.125-1.029-0.372-2.114-0.372-3.198c0-15.17,0.027-30.339,0.071-45.509c0.003-1.028,0.102-2.077,0.323-3.079
		c0.321-1.461,1.064-2.625,2.608-3.16c6.855-2.378,13.698-4.791,20.55-7.179C354.963,375.661,355.217,375.724,355.602,375.724z"/>
	<path fill="#4C396D" d="M310.853,169.138c-8.263,0-16.249,0-24.483,0c-0.124-1.302-0.335-2.552-0.347-3.803
		c-0.145-14.624-0.261-29.248-0.382-43.873c-0.003-0.399-0.011-0.801,0.027-1.198c0.224-2.334,1.155-3.423,3.47-3.437
		c6.075-0.037,12.152,0.019,18.225,0.173c2.2,0.056,3.44,1.625,3.449,4.035c0.062,15.586,0.098,31.171,0.137,46.757
		C310.951,168.175,310.896,168.558,310.853,169.138z"/>
	<path fill="#523C70" d="M195.524,358.629c6.148,2.204,11.997,4.296,17.842,6.398c1.651,0.594,3.294,1.211,4.935,1.832
		c2.361,0.894,2.655,1.286,2.664,3.893c0.051,14.932,0.087,29.865,0.126,44.797c0.002,0.799,0.051,1.602-0.019,2.395
		c-0.14,1.579-1.143,2.066-2.431,1.107c-7.172-5.344-14.314-10.727-21.474-16.088c-1.45-1.086-1.681-2.633-1.688-4.269
		c-0.021-4.472-0.037-8.944-0.04-13.416c-0.007-8.306-0.004-16.611,0-24.917C195.438,359.886,195.484,359.41,195.524,358.629z"/>
	<path fill="#5A4075" d="M286.602,391.266c1.995,0.58,3.517,0.834,4.873,1.452c4.42,2.015,8.819,1.865,13.273,0.212
		c1.047-0.388,2.088-0.823,3.169-1.081c2.03-0.485,2.845,0.12,3.074,2.165c0.071,0.633,0.073,1.276,0.069,1.915
		c-0.077,13.499-0.143,26.998-0.249,40.497c-0.034,4.363-0.868,5.05-5.291,4.992c-4.711-0.062-9.424-0.033-14.137-0.014
		c-4.664,0.019-5.851-0.782-5.756-5.871c0.254-13.494,0.279-26.993,0.434-40.49C286.076,393.899,286.381,392.759,286.602,391.266z"
		/>
	<path fill="#604278" d="M399.972,360.08c0.157,1.432,0.402,2.67,0.411,3.91c0.079,11.413,0.112,22.827,0.169,34.24
		c0.012,2.367-0.745,4.183-2.761,5.725c-6.594,5.042-13.037,10.282-19.543,15.44c-0.491,0.39-1.013,0.74-1.461,1.066
		c-1.404-0.416-1.43-1.418-1.43-2.504c0.006-7.584,0.023-15.167-0.039-22.751c-0.05-5.983-0.241-11.964-0.299-17.946
		c-0.018-1.826,0.081-3.671,0.337-5.478c0.322-2.275,1.587-4,3.718-4.946c1.306-0.579,2.669-1.045,4.033-1.478
		c4.861-1.54,9.733-3.044,14.601-4.562C398.373,360.589,399.036,360.376,399.972,360.08z"/>
	<path fill="#503C70" d="M286.324,220.902c0-8.322,0-16.515,0-24.865c8.177,0,16.274,0,24.475,0c0,8.337,0,16.527,0,24.865
		C302.665,220.902,294.632,220.902,286.324,220.902z"/>
</g>
</svg>
