<?xml version="1.0" encoding="utf-8"?>
<!-- Generator: Adobe Illustrator 27.9.0, SVG Export Plug-In . SVG Version: 6.00 Build 0)  -->
<svg version="1.1" id="Layer_1" xmlns="http://www.w3.org/2000/svg" xmlns:xlink="http://www.w3.org/1999/xlink" x="0px" y="0px"
	 viewBox="0 0 595.276 520.252" enable-background="new 0 0 595.276 520.252" xml:space="preserve">
<g>
	<path fill="#FFFFFF" d="M217.196,119.367c0,67.338,0,134.675,0,202.535c-7.888-2.782-15.425-5.221-22.728-8.228
		c-1.247-0.513-2.104-3.455-2.111-5.278c-0.128-34.987-0.11-69.975-0.104-104.963c0.004-20.826-0.052-41.653,0.194-62.476
		c0.027-2.294,1.272-5.275,2.981-6.722c6.554-5.552,13.527-10.608,20.344-15.849C216.247,118.713,216.722,119.04,217.196,119.367z"
		/>
	<path fill="#FFFFFF" d="M372.31,322.895c0-68.264,0-135.869,0-205.199c8.488,6.368,16.11,11.842,23.366,17.764
		c1.251,1.021,1.306,3.945,1.312,5.992c0.092,33.009,0.094,66.018,0.1,99.028c0.004,23.007-0.115,46.014,0.068,69.019
		c0.03,3.834-1.138,5.522-4.796,6.584C385.694,318.016,379.194,320.52,372.31,322.895z"/>
	<path fill="#FFFFFF" d="M417.096,364.137c0-69.432,0-138.561,0-209.068c2.08,2.802,3.539,4.65,4.874,6.585
		c13.47,19.521,21.493,40.511,20.558,64.874c-0.926,24.124-0.795,48.327-0.092,72.465c0.673,23.092-8.388,42.355-20.947,60.627
		c-1.029,1.496-2.235,2.871-3.375,4.289C418.041,364.001,417.828,363.98,417.096,364.137z"/>
	<path fill="#FFFFFF" d="M171.774,155.634c0,70.33,0,139.232,0,209.267c-11.499-14.144-19.371-28.914-23.526-45.565
		c-0.916-3.672-1.327-7.562-1.336-11.353c-0.075-31.668-0.482-63.346,0.204-94.999c0.425-19.598,9.4-36.449,20.554-52.136
		C168.698,159.401,169.862,158.053,171.774,155.634z"/>
	<path fill="#FFFFFF" d="M282.636,230.278c8.709,0,16.493,0,24.634,0c0.11,1.63,0.293,3.084,0.294,4.538
		c0.018,35.16-0.048,70.321,0.11,105.48c0.017,3.801-1.113,5.556-4.724,6.736c-5.444,1.779-10.506,1.977-16.002-0.031
		c-3.521-1.287-4.372-3.06-4.356-6.497c0.112-24.662,0.049-49.324,0.044-73.986C282.634,254.558,282.636,242.597,282.636,230.278z"
		/>
	<path fill="#FFFFFF" d="M261.921,230.315c0,35.814,0,71.26,0,107.459c-7.843-2.746-15.429-5.315-22.916-8.144
		c-0.834-0.315-1.573-2.111-1.575-3.221c-0.057-31.496-0.017-62.991,0.031-94.487c0.001-0.465,0.289-0.93,0.513-1.606
		C245.733,230.315,253.503,230.315,261.921,230.315z"/>
	<path fill="#FFFFFF" d="M328.234,230.317c8.062,0,15.666,0,23.563,0c0.094,1.677,0.246,3.13,0.247,4.583
		c0.01,30.16-0.054,60.321,0.08,90.481c0.015,3.388-0.897,4.981-4.24,5.97c-6.478,1.917-12.796,4.377-19.65,6.776
		C328.234,301.999,328.234,266.322,328.234,230.317z"/>
	<path fill="#FFFFFF" d="M261.826,101.522c0,34.366,0,67.982,0,101.968c-7.906,0-15.826,0-24.23,0
		c-0.077-1.513-0.23-3.133-0.233-4.754c-0.04-28.342,0.012-56.685-0.177-85.027c-0.024-3.652,1.088-5.418,4.557-6.338
		C248.311,105.63,254.799,103.588,261.826,101.522z"/>
	<path fill="#FFFFFF" d="M351.372,203.619c-7.768,0-15.37,0-23.327,0c0-33.812,0-67.376,0-101.696
		c7.428,2.156,14.567,4.123,21.609,6.388c1.035,0.333,2.303,2.079,2.305,3.174c0.056,30.477-0.037,60.955-0.118,91.433
		C351.841,203.048,351.674,203.178,351.372,203.619z"/>
	<path fill="#FFFFFF" d="M237.558,357.452c8.028,2.848,15.512,5.417,22.9,8.239c0.855,0.327,1.669,2.049,1.672,3.127
		c0.054,16.806-0.027,33.612-0.099,50.418c-0.001,0.289-0.283,0.577-0.914,1.785c-7.167-2.455-14.518-4.885-21.774-7.572
		c-0.861-0.319-1.704-2.035-1.71-3.109C237.527,393.051,237.558,375.761,237.558,357.452z"/>
	<path fill="#FFFFFF" d="M307.496,151.564c-8.333,0-16.237,0-24.503,0c-0.144-1.325-0.393-2.589-0.402-3.854
		c-0.103-14.647-0.067-29.296-0.322-43.94c-0.061-3.508,1.057-4.746,4.498-4.637c5.816,0.184,11.647-0.061,17.455,0.224
		c1.132,0.056,3.124,1.698,3.135,2.626C307.549,118.417,307.496,134.852,307.496,151.564z"/>
	<path fill="#FFFFFF" d="M352.149,358.067c0,17.846,0.066,35.123-0.142,52.396c-0.015,1.215-1.838,3.012-3.196,3.506
		c-6.66,2.423-13.446,4.497-20.53,6.806c-0.183-1.122-0.463-2.036-0.462-2.951c0.002-15.968-0.018-31.937,0.161-47.904
		c0.016-1.418,1.042-3.662,2.155-4.094C337.193,363.082,344.408,360.741,352.149,358.067z"/>
	<path fill="#FFFFFF" d="M283.436,374.054c1.652,0.45,3.303,0.66,4.737,1.334c4.702,2.209,9.213,1.769,13.948-0.084
		c4.87-1.905,5.528-1.358,5.505,3.743c-0.06,13.622-0.273,27.244-0.294,40.866c-0.005,2.934-0.927,4.234-4.02,4.14
		c-5.482-0.165-10.972-0.066-16.458-0.054c-2.611,0.005-4.596-0.594-4.568-3.82c0.129-14.631,0.204-29.263,0.34-43.893
		C282.633,375.677,283.054,375.072,283.436,374.054z"/>
	<path fill="#FFFFFF" d="M192.047,341.245c8.569,3.079,16.338,5.826,24.052,8.719c0.684,0.256,1.436,1.463,1.44,2.232
		c0.083,16.443,0.063,32.886,0.063,49.329c-0.491,0.277-0.981,0.555-1.472,0.832c-7.632-5.695-15.296-11.348-22.847-17.149
		c-0.763-0.586-1.178-2.065-1.184-3.132C192.019,368.779,192.047,355.481,192.047,341.245z"/>
	<path fill="#FFFFFF" d="M372.029,402.2c0-11.743-0.058-23.487,0.026-35.23c0.038-5.261-1.449-11.774,1.076-15.418
		c2.381-3.435,9.117-3.862,13.946-5.586c2.945-1.052,5.908-2.056,9.506-3.306c0.202,1.78,0.482,3.127,0.489,4.476
		c0.06,11.311,0.106,22.622,0.047,33.932c-0.007,1.385-0.2,3.327-1.09,4.061c-7.474,6.158-15.13,12.094-22.732,18.096
		C372.874,402.884,372.451,402.542,372.029,402.2z"/>
	<path fill="#FFFFFF" d="M307.396,178.346c0,8.532,0,16.636,0,25.13c-8.176,0-16.197,0-24.523,0c0-8.368,0-16.604,0-25.13
		C291.024,178.346,298.947,178.346,307.396,178.346z"/>
</g>
</svg>
