<svg width="24" height="24" viewBox="0 0 24 24" fill="none" xmlns="http://www.w3.org/2000/svg">
<g clip-path="url(#clip0_35_3)">
<path fill-rule="evenodd" clip-rule="evenodd" d="M11 15.52C12.2383 16.7806 13.3225 18.1838 14.23 19.7C14.43 20.07 14.6 20.46 14.79 20.84C15.79 22.95 16.67 21.58 13.38 16.76L14.17 16.15C14.9434 15.6809 15.7984 15.362 16.69 15.21C21.05 14.21 21.26 15.31 21.69 15.31C21.95 15.31 22.06 15.18 22.05 14.97C22.05 13.97 17.9 13.18 14.97 14.64C14.1989 15.0234 13.5174 15.5652 12.97 16.23C11.15 13.73 8.58 11.87 5.58 12.56C3.85508 12.9996 2.31862 13.9853 1.2 15.37C1.05 15.79 1.03 16.31 1.39 16.09C2.4 15.22 6.19 10.92 11 15.52Z" fill="#148BA0"/>
<path fill-rule="evenodd" clip-rule="evenodd" d="M23.62 14.19C23.668 11.3641 23.5311 8.53804 23.21 5.73C22.92 3.64 23.43 1.28 19.94 0.729999C16.45 0.179999 5.92 0.839999 4.87 0.849999C3.86866 0.759918 2.85979 0.803636 1.87 0.979999C0.71 1.29 0.42 2.15 0.29 3.34C0.16 4.53 -0.15 13 0.1 16.74C0.25 18.87 -0.16 22.22 2 22.88C3.08 23.22 10.46 23.4 11.18 23.41C11.9 23.42 20.52 23.89 23.18 22.41C24.72 21.58 23.62 18.48 23.62 14.19ZM22.38 21.54C19.16 22.77 5.78 22.45 2.59 22.04C2.38816 22.0344 2.19092 21.9785 2.01625 21.8771C1.84159 21.7758 1.69505 21.6324 1.59 21.46C0.68 19.71 0.7 6.09 1 3.41C1.17 1.77 1.45 1.63 2.4 1.49C3.23198 1.42282 4.06802 1.42282 4.9 1.49C7.6 1.49 10.3 1.28 12.98 1.27C14.66 1.27 19.49 1.57 19.82 1.63C20.4958 1.72246 21.1273 2.01901 21.63 2.48C22.18 3.02 22.13 5.07 22.23 5.86C22.7 9.75 22.45 13.19 22.56 15.29C22.85 21.72 23 21.29 22.38 21.54Z" fill="#148BA0"/>
<path fill-rule="evenodd" clip-rule="evenodd" d="M12.16 7.06C11.9282 7.62201 11.9145 8.25031 12.1217 8.82186C12.3289 9.39341 12.7419 9.86704 13.28 10.15C15.18 11.15 17.6 10.29 17.61 7.97C17.62 4.68 13.11 4.72 12.16 7.06ZM13.04 7.37C13.63 5.37 16.79 6.14 16.67 7.94C16.49 10.43 12.37 9.59 13 7.37H13.04Z" fill="#148BA0"/>
<path fill-rule="evenodd" clip-rule="evenodd" d="M11.51 7.74C11.5914 7.73531 11.6684 7.70151 11.727 7.64477C11.7856 7.58802 11.8218 7.51212 11.8291 7.43089C11.8364 7.34966 11.8142 7.26852 11.7666 7.20227C11.7191 7.13603 11.6493 7.08908 11.57 7.07C10.23 6.48 10.35 7.07 9.89 7.07C9.43 7.07 9.59 8.17 11.51 7.74Z" fill="#148BA0"/>
<path fill-rule="evenodd" clip-rule="evenodd" d="M15.18 4.59C15.9 4.68 15.68 3 15.52 2.34C15.52 2.22 15.18 2.07 14.95 2.47C14.44 3.37 14.79 4.54 15.18 4.59Z" fill="#148BA0"/>
<path fill-rule="evenodd" clip-rule="evenodd" d="M18.2 7.38V7.54C18.572 7.82468 19.032 7.96978 19.5 7.95C19.93 7.95 20.22 7.74 20.67 7.74H20.88C20.92 7.74 21 7.57 21.03 7.48C21.31 6.65 18.13 7.07 18.2 7.38Z" fill="#148BA0"/>
<path fill-rule="evenodd" clip-rule="evenodd" d="M17.74 5.51C17.82 5.51 18.74 5.51 19.43 4.29C19.4796 4.2687 19.5234 4.23591 19.5578 4.19434C19.5922 4.15276 19.6162 4.10359 19.6278 4.0509C19.6395 3.99821 19.6384 3.9435 19.6247 3.8913C19.611 3.83911 19.5851 3.79092 19.5491 3.75073C19.5131 3.71054 19.468 3.67949 19.4176 3.66016C19.3672 3.64083 19.313 3.63377 19.2593 3.63956C19.2057 3.64535 19.1542 3.66383 19.1091 3.69347C19.064 3.7231 19.0266 3.76305 19 3.81C17.45 4.6 17.44 5.48 17.74 5.51Z" fill="#148BA0"/>
<path fill-rule="evenodd" clip-rule="evenodd" d="M12.53 5.36C12.5764 5.36008 12.6223 5.35067 12.6649 5.33235C12.7075 5.31402 12.7459 5.28717 12.7778 5.25345C12.8096 5.21973 12.8342 5.17985 12.8501 5.13626C12.866 5.09267 12.8727 5.0463 12.87 5C12.87 4.92 12.34 3.59 11.29 3.65C10.7 3.7 11.76 5.64 12.53 5.36Z" fill="#148BA0"/>
<path fill-rule="evenodd" clip-rule="evenodd" d="M15.7 11.15C15.7 11.02 15.52 11 15.28 11.03C15.04 11.06 14.82 11.94 14.87 12.3C14.9203 12.5225 14.9906 12.7401 15.08 12.95C15.08 13.48 16.28 13.72 15.7 11.15Z" fill="#148BA0"/>
<path fill-rule="evenodd" clip-rule="evenodd" d="M12 9.67C11.15 9.93 10.06 11.89 10.83 11.75C12 11.5 13.32 9.24 12 9.67Z" fill="#148BA0"/>
<path fill-rule="evenodd" clip-rule="evenodd" d="M17.45 9.85C16.93 9.85 17.59 10.67 17.64 10.75C18.0625 11.045 18.5433 11.2462 19.05 11.34C19.1402 11.34 19.2267 11.3042 19.2904 11.2404C19.3542 11.1767 19.39 11.0902 19.39 11C19.47 10.72 18.66 9.79 17.45 9.85Z" fill="#148BA0"/>
</g>
<defs>
<clipPath id="clip0_35_3">
<rect width="24" height="24" fill="white"/>
</clipPath>
</defs>
</svg>
