<svg width="24" height="24" viewBox="0 0 24 24" fill="none" xmlns="http://www.w3.org/2000/svg">
<g clip-path="url(#clip0_47_15)">
<path fill-rule="evenodd" clip-rule="evenodd" d="M11.8 3.92006H11.69C11.6884 3.98643 11.669 4.05117 11.6338 4.10747C11.5987 4.16377 11.549 4.20957 11.49 4.24005C11.1663 4.41645 10.8699 4.63875 10.61 4.90005C10.3689 5.13021 10.1752 5.4054 10.04 5.71005L9.79998 6.46005L9.65998 6.77005C9.65998 7.07005 8.65999 7.68005 8.51999 7.04005C8.39143 6.89571 8.29588 6.72509 8.23998 6.54005C8.15998 6.31005 8.12999 6.02005 8.05999 5.84005C7.94322 5.40855 7.74275 5.00422 7.46998 4.65005C7.19853 4.32181 6.82564 4.09314 6.40998 4.00005C6.33103 3.99562 6.2563 3.96297 6.19939 3.90807C6.14248 3.85316 6.10718 3.77965 6.09991 3.70091C6.09264 3.62217 6.11389 3.54343 6.15979 3.47904C6.20568 3.41464 6.27318 3.36887 6.34999 3.35005C6.38548 3.2947 6.43818 3.25253 6.49998 3.23006C6.80662 3.08936 7.08202 2.88876 7.30998 2.64006C7.52057 2.38633 7.68017 2.09431 7.77999 1.78005L7.99998 1.00005V0.500055C8.0531 0.334434 8.16285 0.192814 8.30999 0.100055C8.42726 0.0210519 8.56739 -0.0168895 8.7085 -0.00784389C8.84962 0.00120174 8.98376 0.0567251 9.08998 0.150055C9.25885 0.278272 9.39293 0.446727 9.47998 0.640055C9.64998 1.00005 9.76998 1.64006 9.89998 1.82006C10.0519 2.18685 10.3095 2.50015 10.64 2.72006C11.0184 2.9629 11.439 3.13251 11.88 3.22006C11.9694 3.23485 12.0496 3.28377 12.1037 3.35651C12.1578 3.42926 12.1816 3.52015 12.17 3.61005C12.1599 3.69934 12.1159 3.78133 12.047 3.83904C11.9781 3.89675 11.8897 3.92576 11.8 3.92006ZM10.19 3.59005C9.63304 3.35038 9.15481 2.95878 8.80999 2.46006C8.78853 2.41524 8.77178 2.36832 8.75998 2.32006C8.56478 2.70197 8.29635 3.04176 7.96998 3.32006C7.83998 3.42006 7.65999 3.46006 7.51999 3.55006C7.75091 3.65466 7.96902 3.78552 8.16998 3.94006C8.53315 4.23727 8.84118 4.59608 9.07998 5.00005C9.26946 4.72138 9.50242 4.47491 9.76999 4.27005C10.0799 4.03618 10.4154 3.83824 10.77 3.68006C10.5744 3.66708 10.3803 3.63697 10.19 3.59005Z" fill="#FFEB3B"/>
<path fill-rule="evenodd" clip-rule="evenodd" d="M16.06 7.83C16.06 7.83 16.89 6.83 17.24 6.99C17.32 6.99 17.63 7.11 17.3 8.24C17.2688 8.34169 17.2252 8.4391 17.17 8.53C17.1202 8.62266 17.0521 8.7043 16.97 8.77C16.97 8.77 16.11 9.45 15.82 9.2C15.75 9.13 15.57 9.07 15.94 8.06C15.9614 7.97499 16.0025 7.89621 16.06 7.83Z" fill="#FFEB3B"/>
<path fill-rule="evenodd" clip-rule="evenodd" d="M17.65 5.54011C16.838 5.29732 16.0969 4.86157 15.49 4.27011C15.1961 4.01153 14.961 3.69298 14.8006 3.33591C14.6402 2.97885 14.5581 2.59155 14.56 2.20011C14.63 1.51011 15.13 0.890106 16.34 0.760106H16.5C16.5193 0.698504 16.5543 0.643019 16.6017 0.599162C16.6491 0.555306 16.7071 0.524604 16.77 0.510106C17.5657 0.340919 18.3937 0.410495 19.15 0.710106C19.8861 0.990046 20.5642 1.40366 21.15 1.93011C21.4996 2.18194 21.7763 2.52186 21.9519 2.9153C22.1276 3.30875 22.1959 3.74169 22.15 4.17011C22 4.83011 21.38 5.43011 20.15 5.70011C19.3163 5.85588 18.457 5.80088 17.65 5.54011ZM20.93 3.86011C21.02 3.54011 20.79 3.17011 20.39 2.74011C19.9444 2.24332 19.4081 1.83605 18.81 1.54011C18.2216 1.238 17.5572 1.11625 16.9 1.19011C16.8606 1.20027 16.8193 1.20027 16.78 1.19011C16.7734 1.27643 16.7368 1.35773 16.6765 1.41986C16.6162 1.48198 16.5361 1.52099 16.45 1.53011C15.81 1.65011 15.45 1.90011 15.45 2.27011C15.485 2.51255 15.5697 2.74514 15.6987 2.95335C15.8278 3.16155 15.9984 3.34088 16.2 3.48011C16.726 3.90111 17.3419 4.19537 18 4.34011C18.6225 4.51209 19.2766 4.53607 19.91 4.41011C20.47 4.30011 20.84 4.16011 20.93 3.86011Z" fill="#FFEB3B"/>
<path fill-rule="evenodd" clip-rule="evenodd" d="M17.92 11.2401C17.76 11.1001 17.62 11.0401 18.65 9.24009C18.81 9.00009 19 8.75009 19.18 8.48009C20.11 7.12009 20.09 6.91009 20.47 7.00009C20.47 7.00009 21.11 7.00009 20.28 9.00009C20.1968 9.20985 20.0929 9.41084 19.97 9.60009C19.8546 9.79275 19.7207 9.97362 19.57 10.1401C18.36 11.5101 18.07 11.3601 17.92 11.2401Z" fill="#FFEB3B"/>
<path fill-rule="evenodd" clip-rule="evenodd" d="M2.13994 12.4101C2.99868 12.2974 3.86384 12.2406 4.72994 12.2401C5.20247 12.2519 5.65989 12.4091 6.03994 12.6901C6.52885 13.1605 6.84874 13.7792 6.94994 14.4501C7.41365 14.1932 7.82699 13.8544 8.16994 13.4501C8.84028 12.624 9.37989 11.6999 9.76994 10.7101C9.95994 10.3101 10.1299 9.89011 10.3399 9.50011C10.4986 9.20788 10.6827 8.93014 10.8899 8.67011C11.0763 8.44025 11.2914 8.23524 11.5299 8.06011C11.6317 8.00668 11.745 7.97876 11.8599 7.97876C11.9749 7.97876 12.0881 8.00668 12.1899 8.06011C12.3342 8.13585 12.4578 8.24571 12.5499 8.38011C12.6814 8.62337 12.7822 8.88201 12.8499 9.15011C12.9736 9.58152 13.0572 10.0234 13.0999 10.4701C13.135 10.9061 13.135 11.3441 13.0999 11.7801C13.0735 12.2069 13.0167 12.6314 12.9299 13.0501C12.9299 13.2701 12.8099 13.4701 12.7499 13.6801C13.8389 13.2701 14.9549 12.9359 16.0899 12.6801C16.8178 12.5269 17.5732 12.5683 18.2799 12.8001C18.4965 12.8781 18.6828 13.0227 18.8122 13.2131C18.9415 13.4036 19.0072 13.63 18.9999 13.8601C18.9382 14.4954 18.6755 15.0944 18.2499 15.5701C17.7079 16.0205 17.0828 16.3603 16.4099 16.5701C16.4783 16.5688 16.5454 16.5895 16.6011 16.6291C16.6569 16.6687 16.6986 16.7251 16.7199 16.7901C16.9329 17.1669 17.0448 17.5923 17.0448 18.0251C17.0448 18.4579 16.9329 18.8833 16.7199 19.2601V19.3101C16.7708 19.4699 16.8076 19.6339 16.8299 19.8001C16.8697 20.1021 16.8697 20.4081 16.8299 20.7101C16.7647 21.1578 16.6086 21.5874 16.3713 21.9726C16.134 22.3578 15.8205 22.6905 15.4499 22.9501C14.9461 23.2762 14.3753 23.4846 13.7799 23.5601C13.1598 23.6497 12.5301 23.6497 11.9099 23.5601C10.5508 23.3201 9.23158 22.8927 7.98994 22.2901C7.94178 22.2714 7.89782 22.2432 7.86062 22.2074C7.82343 22.1715 7.79373 22.1286 7.77326 22.0811C7.75279 22.0337 7.74195 21.9826 7.74138 21.931C7.74081 21.8793 7.75052 21.828 7.76994 21.7801C7.78762 21.7323 7.81474 21.6886 7.84967 21.6514C7.88461 21.6143 7.92665 21.5846 7.9733 21.5641C8.01995 21.5436 8.07025 21.5327 8.12121 21.532C8.17218 21.5313 8.22275 21.5409 8.26994 21.5601C9.49614 21.9594 10.7647 22.2145 12.0499 22.3201C12.5618 22.3756 13.0781 22.3756 13.5899 22.3201C14.0051 22.2732 14.4083 22.1512 14.7799 21.9601C15.0566 21.813 15.3015 21.6127 15.5005 21.3708C15.6996 21.1288 15.8489 20.8499 15.9399 20.5501C16.0037 20.3728 16.044 20.1879 16.0599 20.0001C15.8997 20.0986 15.7326 20.1855 15.5599 20.2601C14.9142 20.4648 14.2358 20.5463 13.5599 20.5001C13.5058 20.5124 13.4496 20.513 13.3951 20.5018C13.3407 20.4906 13.2893 20.4679 13.2444 20.4352C13.1994 20.4026 13.162 20.3607 13.1345 20.3124C13.1071 20.264 13.0903 20.2104 13.0853 20.1551C13.0802 20.0997 13.0871 20.044 13.1054 19.9915C13.1236 19.939 13.1529 19.8911 13.1912 19.8508C13.2296 19.8106 13.276 19.779 13.3275 19.7582C13.3791 19.7374 13.4344 19.7278 13.4899 19.7301C14.0041 19.5536 14.4919 19.308 14.9399 19.0001C15.211 18.8618 15.4523 18.6715 15.6499 18.4401C15.8171 18.2432 15.9401 18.0129 16.0108 17.7645C16.0815 17.5161 16.0983 17.2555 16.0599 17.0001C16.0442 16.9394 16.0473 16.8754 16.0687 16.8165C16.0901 16.7576 16.1289 16.7065 16.1799 16.6701C15.2012 16.9511 14.1957 17.1287 13.1799 17.2001C13.1292 17.2071 13.0776 17.2037 13.0282 17.1903C12.9788 17.1768 12.9327 17.1535 12.8925 17.1217C12.8523 17.09 12.819 17.0504 12.7945 17.0055C12.77 16.9605 12.7549 16.9111 12.7499 16.8601C12.7429 16.8088 12.7462 16.7567 12.7596 16.7067C12.7729 16.6567 12.7961 16.6098 12.8278 16.5689C12.8594 16.5279 12.8989 16.4937 12.9439 16.4681C12.9889 16.4426 13.0386 16.4263 13.0899 16.4201C14.0492 16.2641 14.9882 16.0025 15.8899 15.6401C16.4436 15.429 16.9475 15.1056 17.3699 14.6901C18.0499 14.0101 17.8699 13.6901 15.6899 13.9801C14.3299 14.1801 12.8599 14.5801 11.9799 14.6601C11.8889 14.6719 11.7967 14.6485 11.7223 14.5946C11.648 14.5406 11.597 14.4604 11.5799 14.3701C11.5729 14.3254 11.5748 14.2797 11.5856 14.2358C11.5964 14.1918 11.6159 14.1505 11.6429 14.1141C11.6699 14.0778 11.7039 14.0472 11.7429 14.0242C11.7819 14.0012 11.8251 13.9862 11.8699 13.9801H11.9799C12.0613 13.6515 12.1181 13.3172 12.1499 12.9801C12.1849 12.5976 12.1849 12.2126 12.1499 11.8301C12.1328 11.4267 12.0826 11.0253 11.9999 10.6301C11.9365 10.3315 11.853 10.0375 11.7499 9.75011C11.6572 9.8808 11.5737 10.0178 11.4999 10.1601C11.2899 10.5301 11.1099 10.9301 10.9199 11.3001C10.4001 12.3511 9.72596 13.3185 8.91994 14.1701C8.37161 14.6867 7.71602 15.076 6.99994 15.3101C6.99994 15.9801 6.99994 16.6501 7.05994 17.1501C7.05994 18.2901 7.27994 19.7901 7.26994 21.1501C7.2864 21.7724 7.22254 22.3942 7.07994 23.0001C6.98518 23.1978 6.84532 23.3704 6.67163 23.5042C6.49794 23.6379 6.29527 23.729 6.07994 23.7701C5.39918 23.9348 4.70023 24.012 3.99994 24.0001C3.9487 23.9976 3.89847 23.9849 3.85213 23.9629C3.80579 23.9409 3.76424 23.91 3.72987 23.8719C3.6955 23.8338 3.66898 23.7893 3.65183 23.741C3.63469 23.6926 3.62725 23.6413 3.62994 23.5901C3.63121 23.5393 3.64264 23.4893 3.66357 23.443C3.6845 23.3967 3.7145 23.3551 3.75179 23.3206C3.78908 23.2861 3.83291 23.2595 3.88068 23.2422C3.92846 23.2249 3.97921 23.2174 4.02994 23.2201C4.36994 23.2201 5.76994 22.2201 6.13994 22.6401C6.19603 22.1484 6.19603 21.6518 6.13994 21.1601C6.06994 19.8101 5.80994 18.3201 5.75994 17.1601C5.81432 16.3343 5.81432 15.5059 5.75994 14.6801C5.75732 14.229 5.60226 13.792 5.31994 13.4401C5.03251 13.2209 4.6814 13.1015 4.31994 13.1001C3.53994 13.0301 2.64994 13.1001 2.16994 13.1001C2.07791 13.0976 1.99035 13.0599 1.92525 12.9948C1.86015 12.9297 1.82246 12.8421 1.81994 12.7501C1.82209 12.664 1.85592 12.5817 1.91496 12.519C1.974 12.4562 2.05411 12.4175 2.13994 12.4101Z" fill="#FFEB3B"/>
</g>
<defs>
<clipPath id="clip0_47_15">
<rect width="24" height="24" fill="white" transform="matrix(-1 0 0 1 24 0)"/>
</clipPath>
</defs>
</svg>
