<svg width="24" height="24" viewBox="0 0 24 24" fill="none" xmlns="http://www.w3.org/2000/svg">
<g clip-path="url(#clip0_47_8)">
<path fill-rule="evenodd" clip-rule="evenodd" d="M12.2 3.92006H12.31C12.3116 3.98643 12.331 4.05117 12.3662 4.10747C12.4013 4.16377 12.451 4.20957 12.51 4.24005C12.8337 4.41645 13.1301 4.63875 13.39 4.90005C13.6311 5.13021 13.8248 5.4054 13.96 5.71005L14.2 6.46005L14.34 6.77005C14.34 7.07005 15.34 7.68005 15.48 7.04005C15.6086 6.89571 15.7041 6.72509 15.76 6.54005C15.84 6.31005 15.87 6.02005 15.94 5.84005C16.0568 5.40855 16.2573 5.00422 16.53 4.65005C16.8015 4.32181 17.1744 4.09314 17.59 4.00005C17.669 3.99562 17.7437 3.96297 17.8006 3.90807C17.8575 3.85316 17.8928 3.77965 17.9001 3.70091C17.9074 3.62217 17.8861 3.54343 17.8402 3.47904C17.7943 3.41464 17.7268 3.36887 17.65 3.35005C17.6145 3.2947 17.5618 3.25253 17.5 3.23006C17.1934 3.08936 16.918 2.88876 16.69 2.64006C16.4794 2.38633 16.3198 2.09431 16.22 1.78005L16 1.00005V0.500055C15.9469 0.334434 15.8371 0.192814 15.69 0.100055C15.5727 0.0210519 15.4326 -0.0168895 15.2915 -0.00784389C15.1504 0.00120174 15.0162 0.0567251 14.91 0.150055C14.7412 0.278272 14.6071 0.446727 14.52 0.640055C14.35 1.00005 14.23 1.64006 14.1 1.82006C13.9481 2.18685 13.6905 2.50015 13.36 2.72006C12.9816 2.9629 12.561 3.13251 12.12 3.22006C12.0306 3.23485 11.9504 3.28377 11.8963 3.35651C11.8422 3.42926 11.8184 3.52015 11.83 3.61005C11.8401 3.69934 11.8841 3.78133 11.953 3.83904C12.0219 3.89675 12.1103 3.92576 12.2 3.92006ZM13.81 3.59005C14.367 3.35038 14.8452 2.95878 15.19 2.46006C15.2115 2.41524 15.2282 2.36832 15.24 2.32006C15.4352 2.70197 15.7036 3.04176 16.03 3.32006C16.16 3.42006 16.34 3.46006 16.48 3.55006C16.2491 3.65466 16.031 3.78552 15.83 3.94006C15.4669 4.23727 15.1588 4.59608 14.92 5.00005C14.7305 4.72138 14.4976 4.47491 14.23 4.27005C13.9201 4.03618 13.5846 3.83824 13.23 3.68006C13.4256 3.66708 13.6197 3.63697 13.81 3.59005Z" fill="#FFEB3B"/>
<path fill-rule="evenodd" clip-rule="evenodd" d="M7.94004 7.83C7.94004 7.83 7.11004 6.83 6.76004 6.99C6.68004 6.99 6.37004 7.11 6.70004 8.24C6.73115 8.34169 6.77482 8.4391 6.83004 8.53C6.87984 8.62266 6.94787 8.7043 7.03004 8.77C7.03004 8.77 7.89004 9.45 8.18004 9.2C8.25004 9.13 8.43004 9.07 8.06004 8.06C8.03859 7.97499 7.99749 7.89621 7.94004 7.83Z" fill="#FFEB3B"/>
<path fill-rule="evenodd" clip-rule="evenodd" d="M6.35003 5.54011C7.16198 5.29732 7.90309 4.86157 8.51003 4.27011C8.80391 4.01153 9.03898 3.69298 9.1994 3.33591C9.35982 2.97885 9.44187 2.59155 9.44003 2.20011C9.37003 1.51011 8.87003 0.890106 7.66003 0.760106H7.50003C7.48074 0.698504 7.44567 0.643019 7.39831 0.599162C7.35094 0.555306 7.29293 0.524604 7.23003 0.510106C6.43431 0.340919 5.60635 0.410495 4.85003 0.710106C4.11387 0.990046 3.43581 1.40366 2.85003 1.93011C2.50041 2.18194 2.22371 2.52186 2.04807 2.9153C1.87242 3.30875 1.80409 3.74169 1.85003 4.17011C2.00003 4.83011 2.62003 5.43011 3.85003 5.70011C4.68368 5.85588 5.54304 5.80088 6.35003 5.54011ZM3.07003 3.86011C2.98003 3.54011 3.21003 3.17011 3.61003 2.74011C4.05564 2.24332 4.59188 1.83605 5.19003 1.54011C5.77837 1.238 6.44279 1.11625 7.10003 1.19011C7.13938 1.20027 7.18067 1.20027 7.22003 1.19011C7.22657 1.27643 7.26317 1.35773 7.32347 1.41986C7.38376 1.48198 7.46394 1.52099 7.55003 1.53011C8.19003 1.65011 8.55003 1.90011 8.55003 2.27011C8.515 2.51255 8.43031 2.74514 8.30126 2.95335C8.17221 3.16155 8.00157 3.34088 7.80003 3.48011C7.27397 3.90111 6.65807 4.19537 6.00003 4.34011C5.37754 4.51209 4.72344 4.53607 4.09003 4.41011C3.53003 4.30011 3.16003 4.16011 3.07003 3.86011Z" fill="#FFEB3B"/>
<path fill-rule="evenodd" clip-rule="evenodd" d="M6.08002 11.2401C6.24002 11.1001 6.38002 11.0401 5.35002 9.24009C5.19002 9.00009 5.00002 8.75009 4.82002 8.48009C3.89002 7.12009 3.91002 6.91009 3.53002 7.00009C3.53002 7.00009 2.89002 7.00009 3.72002 9.00009C3.80324 9.20985 3.90709 9.41084 4.03002 9.60009C4.14536 9.79275 4.27933 9.97362 4.43002 10.1401C5.64002 11.5101 5.93002 11.3601 6.08002 11.2401Z" fill="#FFEB3B"/>
<path fill-rule="evenodd" clip-rule="evenodd" d="M21.8601 12.4101C21.0013 12.2974 20.1362 12.2406 19.2701 12.2401C18.7975 12.2519 18.3401 12.4091 17.9601 12.6901C17.4712 13.1605 17.1513 13.7792 17.0501 14.4501C16.5863 14.1932 16.173 13.8544 15.8301 13.4501C15.1597 12.624 14.6201 11.6999 14.2301 10.7101C14.0401 10.3101 13.8701 9.89011 13.6601 9.50011C13.5014 9.20788 13.3173 8.93014 13.1101 8.67011C12.9237 8.44025 12.7086 8.23524 12.4701 8.06011C12.3683 8.00668 12.255 7.97876 12.1401 7.97876C12.0251 7.97876 11.9119 8.00668 11.8101 8.06011C11.6658 8.13585 11.5422 8.24571 11.4501 8.38011C11.3186 8.62337 11.2178 8.88201 11.1501 9.15011C11.0264 9.58152 10.9428 10.0234 10.9001 10.4701C10.865 10.9061 10.865 11.3441 10.9001 11.7801C10.9265 12.2069 10.9833 12.6314 11.0701 13.0501C11.0701 13.2701 11.1901 13.4701 11.2501 13.6801C10.1611 13.2701 9.04514 12.9359 7.91006 12.6801C7.1822 12.5269 6.42681 12.5683 5.72006 12.8001C5.50349 12.8781 5.31719 13.0227 5.18785 13.2131C5.0585 13.4036 4.99277 13.63 5.00006 13.8601C5.06179 14.4954 5.32452 15.0944 5.75006 15.5701C6.29212 16.0205 6.91725 16.3603 7.59006 16.5701C7.52166 16.5688 7.45464 16.5895 7.39885 16.6291C7.34306 16.6687 7.30143 16.7251 7.28006 16.7901C7.06711 17.1669 6.95521 17.5923 6.95521 18.0251C6.95521 18.4579 7.06711 18.8833 7.28006 19.2601V19.3101C7.22919 19.4699 7.19239 19.6339 7.17006 19.8001C7.13034 20.1021 7.13034 20.4081 7.17006 20.7101C7.23532 21.1578 7.39139 21.5874 7.6287 21.9726C7.86601 22.3578 8.17955 22.6905 8.55006 22.9501C9.05392 23.2762 9.62468 23.4846 10.2201 23.5601C10.8402 23.6497 11.4699 23.6497 12.0901 23.5601C13.4492 23.3201 14.7684 22.8927 16.0101 22.2901C16.0582 22.2714 16.1022 22.2432 16.1394 22.2074C16.1766 22.1715 16.2063 22.1286 16.2267 22.0811C16.2472 22.0337 16.258 21.9826 16.2586 21.931C16.2592 21.8793 16.2495 21.828 16.2301 21.7801C16.2124 21.7323 16.1853 21.6886 16.1503 21.6514C16.1154 21.6143 16.0733 21.5846 16.0267 21.5641C15.98 21.5436 15.9297 21.5327 15.8788 21.532C15.8278 21.5313 15.7772 21.5409 15.7301 21.5601C14.5039 21.9594 13.2353 22.2145 11.9501 22.3201C11.4382 22.3756 10.9219 22.3756 10.4101 22.3201C9.99486 22.2732 9.59165 22.1512 9.22006 21.9601C8.94341 21.813 8.69853 21.6127 8.49947 21.3708C8.30041 21.1288 8.15108 20.8499 8.06006 20.5501C7.99635 20.3728 7.95601 20.1879 7.94006 20.0001C8.10029 20.0986 8.26738 20.1855 8.44006 20.2601C9.08577 20.4648 9.76424 20.5463 10.4401 20.5001C10.4942 20.5124 10.5504 20.513 10.6049 20.5018C10.6593 20.4906 10.7107 20.4679 10.7556 20.4352C10.8006 20.4026 10.838 20.3607 10.8655 20.3124C10.8929 20.264 10.9097 20.2104 10.9147 20.1551C10.9198 20.0997 10.9129 20.044 10.8946 19.9915C10.8764 19.939 10.8471 19.8911 10.8088 19.8508C10.7704 19.8106 10.724 19.779 10.6725 19.7582C10.6209 19.7374 10.5656 19.7278 10.5101 19.7301C9.99589 19.5536 9.50809 19.308 9.06006 19.0001C8.78895 18.8618 8.5477 18.6715 8.35006 18.4401C8.18295 18.2432 8.0599 18.0129 7.98918 17.7645C7.91847 17.5161 7.90172 17.2555 7.94006 17.0001C7.95577 16.9394 7.95271 16.8754 7.93129 16.8165C7.90986 16.7576 7.87108 16.7065 7.82006 16.6701C8.79881 16.9511 9.80429 17.1287 10.8201 17.2001C10.8708 17.2071 10.9224 17.2037 10.9718 17.1903C11.0212 17.1768 11.0673 17.1535 11.1075 17.1217C11.1477 17.09 11.181 17.0504 11.2055 17.0055C11.23 16.9605 11.2451 16.9111 11.2501 16.8601C11.2571 16.8088 11.2538 16.7567 11.2404 16.7067C11.2271 16.6567 11.2039 16.6098 11.1722 16.5689C11.1406 16.5279 11.1011 16.4937 11.0561 16.4681C11.0111 16.4426 10.9614 16.4263 10.9101 16.4201C9.95082 16.2641 9.01178 16.0025 8.11006 15.6401C7.55641 15.429 7.05249 15.1056 6.63006 14.6901C5.95006 14.0101 6.13006 13.6901 8.31006 13.9801C9.67006 14.1801 11.1401 14.5801 12.0201 14.6601C12.1111 14.6719 12.2033 14.6485 12.2777 14.5946C12.352 14.5406 12.403 14.4604 12.4201 14.3701C12.4271 14.3254 12.4252 14.2797 12.4144 14.2358C12.4036 14.1918 12.3841 14.1505 12.3571 14.1141C12.3301 14.0778 12.2961 14.0472 12.2571 14.0242C12.2181 14.0012 12.1749 13.9862 12.1301 13.9801H12.0201C11.9387 13.6515 11.8819 13.3172 11.8501 12.9801C11.8151 12.5976 11.8151 12.2126 11.8501 11.8301C11.8672 11.4267 11.9174 11.0253 12.0001 10.6301C12.0635 10.3315 12.147 10.0375 12.2501 9.75011C12.3428 9.8808 12.4263 10.0178 12.5001 10.1601C12.7101 10.5301 12.8901 10.9301 13.0801 11.3001C13.5999 12.3511 14.274 13.3185 15.0801 14.1701C15.6284 14.6867 16.284 15.076 17.0001 15.3101C17.0001 15.9801 17.0001 16.6501 16.9401 17.1501C16.9401 18.2901 16.7201 19.7901 16.7301 21.1501C16.7136 21.7724 16.7775 22.3942 16.9201 23.0001C17.0148 23.1978 17.1547 23.3704 17.3284 23.5042C17.5021 23.6379 17.7047 23.729 17.9201 23.7701C18.6008 23.9348 19.2998 24.012 20.0001 24.0001C20.0513 23.9976 20.1015 23.9849 20.1479 23.9629C20.1942 23.9409 20.2358 23.91 20.2701 23.8719C20.3045 23.8338 20.331 23.7893 20.3482 23.741C20.3653 23.6926 20.3728 23.6413 20.3701 23.5901C20.3688 23.5393 20.3574 23.4893 20.3364 23.443C20.3155 23.3967 20.2855 23.3551 20.2482 23.3206C20.2109 23.2861 20.1671 23.2595 20.1193 23.2422C20.0715 23.2249 20.0208 23.2174 19.9701 23.2201C19.6301 23.2201 18.2301 22.2201 17.8601 22.6401C17.804 22.1484 17.804 21.6518 17.8601 21.1601C17.9301 19.8101 18.1901 18.3201 18.2401 17.1601C18.1857 16.3343 18.1857 15.5059 18.2401 14.6801C18.2427 14.229 18.3977 13.792 18.6801 13.4401C18.9675 13.2209 19.3186 13.1015 19.6801 13.1001C20.4601 13.0301 21.3501 13.1001 21.8301 13.1001C21.9221 13.0976 22.0097 13.0599 22.0748 12.9948C22.1399 12.9297 22.1775 12.8421 22.1801 12.7501C22.1779 12.664 22.1441 12.5817 22.085 12.519C22.026 12.4562 21.9459 12.4175 21.8601 12.4101Z" fill="#FFEB3B"/>
</g>
<defs>
<clipPath id="clip0_47_8">
<rect width="24" height="24" fill="white"/>
</clipPath>
</defs>
</svg>
